<?xml version="1.0" encoding="utf-8"?>
<!-- Svg Vector Icons : http://www.onlinewebfonts.com/icon -->
<!DOCTYPE svg PUBLIC "-//W3C//DTD SVG 1.1//EN" "http://www.w3.org/Graphics/SVG/1.1/DTD/svg11.dtd">
<svg version="1.1" xmlns="http://www.w3.org/2000/svg" xmlns:xlink="http://www.w3.org/1999/xlink" x="0px" y="0px" viewBox="0 0 256 256" enable-background="new 0 0 256 256" xml:space="preserve">
<metadata> Svg Vector Icons : http://www.onlinewebfonts.com/icon </metadata>
<g><g><g><path fill="#ffffff" d="M125.4,11.2c-1.2,1.1-1.2,1.3-1.2,9.1v7.9l-5.8,0.6c-23,2.3-44.2,12.4-60.7,28.9c-16.5,16.5-26.6,37.8-28.9,60.7l-0.6,5.8h-7.9c-7.8,0-8,0-9.1,1.2c-1.6,1.5-1.6,3.7,0,5.2c1.1,1.2,1.3,1.2,9.1,1.2h7.9l0.6,5.7c1.5,14.4,6,28.6,13.3,40.7c16.5,27.8,44.7,45.9,76.4,49l5.7,0.6v7.9c0,7.8,0,8,1.2,9.1c0.6,0.7,1.6,1.2,2.1,1.2c1.4,0,3.6-1.2,4-2.1c0.1-0.4,0.3-4.3,0.3-8.5v-7.7h1.6c6.4,0,20.3-2.9,28.4-5.9c16.8-6.2,32.7-17.7,43.9-31.6c8.7-10.9,15.7-24.8,19.1-38.5c1.4-5.3,2.8-14.9,2.8-18.3v-1.6h7.7c4.2,0,8.1-0.1,8.5-0.3c0.9-0.4,2.1-2.6,2.1-4c0-0.5-0.5-1.5-1.2-2.1c-1.1-1.2-1.3-1.2-9.2-1.2h-8v-1.6c0-3.4-1.5-12.9-2.8-18.3c-4.5-18-13.7-34-27.2-47.3c-5.7-5.6-9.3-8.5-15.8-12.7c-13-8.5-28.6-14-44.3-15.6l-5.7-0.6v-7.9c0-7.8,0-8-1.2-9.1c-0.7-0.8-1.7-1.2-2.6-1.2C127.1,10,126.1,10.4,125.4,11.2z M124.2,69.2c0,18.3,0.1,33.6,0.3,34c0.4,1.1,2.9,2.3,4.2,1.9c0.6-0.2,1.6-0.8,2.1-1.3c0.9-1,0.9-1.5,0.9-34.5V36h1.6c6,0,19.4,2.8,27,5.6c22.8,8.5,41.5,25.8,51.5,47.5c4.4,9.7,8.3,25.3,8.3,33.6v1.6h-33.3c-20.4,0-33.6,0.2-34.1,0.5c-0.5,0.2-1.1,1.1-1.5,1.9c-0.7,1.7,0,4,1.5,4.7c0.5,0.3,13.7,0.5,34.1,0.5H220v1.6c0,8.3-3.9,23.9-8.3,33.6c-8.8,19.3-25.6,36-44.8,44.8c-9.7,4.4-25.3,8.3-33.6,8.3h-1.6v-33.3c0-20.4-0.2-33.6-0.5-34.1c-0.8-1.5-3.1-2.2-4.7-1.5c-0.8,0.3-1.7,1-1.9,1.5c-0.3,0.5-0.5,13.7-0.5,34.1V220h-1.6c-2.5,0-9.2-0.9-14.2-1.9c-30.4-6.1-55.9-28.2-66.9-57.8c-2.8-7.6-5.6-20.9-5.6-27v-1.6h33.4c32.9,0,33.5,0,34.5-0.9c0.6-0.5,1.1-1.5,1.3-2.1c0.3-1.3-0.8-3.8-1.9-4.2c-0.4-0.1-15.8-0.3-34-0.3H36v-1.6c0-0.9,0.3-4.1,0.7-7c2.7-20.3,11.7-38.6,26-53c11.9-11.9,26.8-20.3,43.1-24.2c5.3-1.3,12.6-2.4,16.2-2.5l2.2,0L124.2,69.2L124.2,69.2z"/></g></g></g>
</svg>