<?xml version="1.0" encoding="utf-8"?>
<!-- Svg Vector Icons : http://www.onlinewebfonts.com/icon -->
<!DOCTYPE svg PUBLIC "-//W3C//DTD SVG 1.1//EN" "http://www.w3.org/Graphics/SVG/1.1/DTD/svg11.dtd">
<svg version="1.1" xmlns="http://www.w3.org/2000/svg" xmlns:xlink="http://www.w3.org/1999/xlink" x="0px" y="0px" viewBox="0 0 256 256" enable-background="new 0 0 256 256" xml:space="preserve">
<metadata> Svg Vector Icons : http://www.onlinewebfonts.com/icon </metadata>
<g><g><path fill="#FFFFFF" d="M140.7,159.2c26.9,0,48.9-21.9,48.9-48.9s-21.9-48.9-48.9-48.9c-26.9,0-48.9,21.9-48.9,48.9C91.8,137.2,113.8,159.2,140.7,159.2z"/><path fill="#FFFFFF" d="M99.2,168.9c-18.8,0-34.1,15.3-34.1,34.1V241c0,3.6,2.9,6.5,6.5,6.5h138.2c3.6,0,6.5-2.9,6.5-6.5v-37.1c0.6-1,1.1-2.1,1.5-3.2l26.8-70.8c0.9-2.4,1.4-4.9,1.4-7.4V43.1c0-11.6-9.4-21-21-21c-11.6,0-21,9.4-21,21v75.6l-19,50.2H99.2z"/><path fill="#FFFFFF" d="M16.5,55.1H32c3.3,0,6-2.4,6.5-5.6c0.9-5.8,2.7-10.1,5.4-12.7c2.5-2.4,5.9-3.6,10.5-3.6c4.8,0,8.4,1.3,11.2,4c2.8,2.7,4.1,6,4.1,10.4c0,2-0.5,3.9-1.4,5.8c-0.5,0.9-2.4,3.8-9.8,10c-6.9,5.8-11.5,11.3-14.2,16.7c-2.7,5.5-4.1,13.6-4.1,24.5l0,0c0,3.6,2.9,6.5,6.5,6.5h14c3.6,0,6.5-2.9,6.5-6.5l0,0c0-8.5,1-11.9,1.6-13.2c0.5-1.1,2.4-4.1,10.2-10.6c7.2-6,12.1-11.5,14.9-16.7c2.9-5.4,4.3-11.3,4.3-17.5c0-11.1-4.2-20.4-12.6-27.7C77.5,12,67,8.5,54.3,8.5c-12.1,0-22.4,3.6-30.4,10.7C15.7,26.3,11.1,36.1,10,48.1l0,0C9.7,51.8,12.7,55.1,16.5,55.1z"/><path fill="#FFFFFF" d="M60.5,148.3c3.6,0,6.5-2.9,6.5-6.6v-13.9c0-3.6-2.9-6.5-6.5-6.5H46.6c-3.6,0-6.5,2.9-6.5,6.5v13.9c0,3.6,2.9,6.6,6.5,6.6H60.5z"/></g></g>
</svg>