<?xml version="1.0" encoding="utf-8"?>
<!-- Svg Vector Icons : http://www.onlinewebfonts.com/icon -->
<!DOCTYPE svg PUBLIC "-//W3C//DTD SVG 1.1//EN" "http://www.w3.org/Graphics/SVG/1.1/DTD/svg11.dtd">
<svg version="1.1" xmlns="http://www.w3.org/2000/svg" xmlns:xlink="http://www.w3.org/1999/xlink" x="0px" y="0px" viewBox="0 0 256 256" enable-background="new 0 0 256 256" xml:space="preserve">
<metadata> Svg Vector Icons : http://www.onlinewebfonts.com/icon </metadata>
<g><g><g><path fill="#FFFFFF" d="M100.1,10.7c-1.3,1-74.4,176.7-74.7,179.4c-0.1,1.2,0,2.1,0.7,2.8c0.6,0.8,20.5,9.3,63,26.9c34.2,14.2,62.8,25.9,63.7,26.1c1.1,0.2,1.8,0,2.7-0.9c1-0.9,9.7-21.3,38.2-90.1c20.3-48.9,36.9-89.2,36.9-89.5c0-0.3-0.3-1.2-0.7-2c-0.6-1.2-7.5-4.1-63.3-27.3c-34.4-14.3-63.2-26.1-64-26.2C101.7,9.9,100.8,10.2,100.1,10.7z M162.4,44.9c31,12.8,56.4,23.4,56.5,23.6c0.2,0.1-68.1,165.5-68.6,166C150,234.8,37.2,187.9,37,187.4c-0.1-0.3,15.2-37.4,33.9-82.6c18.7-45.2,34.1-82.4,34.3-82.8c0.1-0.3,0.4-0.6,0.6-0.6C105.9,21.5,131.4,32,162.4,44.9z"/><path fill="#FFFFFF" d="M129.8,92.7c-7,2.7-11.4,8.9-11.5,16.1v3.2l-1.8-0.5c-1-0.3-3.2-0.4-5-0.3c-6.5,0.5-12,4.4-14.8,10.4c-1.1,2.4-1.3,3.4-1.3,7.1c0,3.8,0.2,4.7,1.3,7c2.1,4.2,4.3,6.5,8.4,8.5c3.1,1.6,4,1.8,7.2,1.8c2,0,3.6,0.1,3.6,0.3c0,0.2-0.3,1.3-0.8,2.5c-1.5,4.5-6.3,8.4-10.9,9l-2.5,0.3l10.4,4.2c5.7,2.3,11.2,4.5,12.3,5l1.9,0.8l-1-1.1c-0.6-0.6-1.5-2.1-2.2-3.3c-1.6-3-1.6-9,0-12c0.6-1.1,1.2-2,1.3-2c0.1,0,1.1,0.9,2.2,1.9c1.1,1.1,3.2,2.5,4.7,3.2c2.5,1.2,3.3,1.3,7.6,1.3c4.6,0,5-0.1,7.9-1.6c6.1-3.3,9.4-8.7,9.4-15.5c0-6.1-3-11.6-7.9-14.7l-1.8-1.2l1.9-2c1.1-1.2,2.6-3.3,3.2-4.7c1.1-2.3,1.3-3.4,1.3-7.3c0-4-0.2-5-1.3-7.3c-1.7-3.7-4.2-6.3-7.8-8.2c-2.7-1.4-3.5-1.6-7.4-1.7C133.1,91.9,131.5,92,129.8,92.7z"/></g></g></g>
</svg>