<?xml version="1.0" encoding="utf-8"?>
<!-- Svg Vector Icons : http://www.onlinewebfonts.com/icon -->
<!DOCTYPE svg PUBLIC "-//W3C//DTD SVG 1.1//EN" "http://www.w3.org/Graphics/SVG/1.1/DTD/svg11.dtd">
<svg version="1.1" xmlns="http://www.w3.org/2000/svg" xmlns:xlink="http://www.w3.org/1999/xlink" x="0px" y="0px" viewBox="0 0 256 256" enable-background="new 0 0 256 256" xml:space="preserve">
<metadata> Svg Vector Icons : http://www.onlinewebfonts.com/icon </metadata>
<g><g><g><path fill="#ffffff" d="M10.3,53.6L10,68.8h22.6H55V53.6V38.4H32.7H10.6L10.3,53.6z"/><path fill="#ffffff" d="M104.3,53.6v15.2h24.2h24.2V53.6V38.4h-24.2h-24.2V53.6z"/><path fill="#ffffff" d="M200,53.6v15.2h23H246l-0.3-15.2l-0.3-15.2h-22.7H200L200,53.6L200,53.6z"/><path fill="#ffffff" d="M10.5,91v15.6h36h36V91V75.4h-36h-36V91z"/><path fill="#ffffff" d="M90.1,91v15.6h37h37V91V75.4h-37h-37V91z"/><path fill="#ffffff" d="M171.6,91v15.6h37h37V91V75.4h-37h-37V91z"/><path fill="#ffffff" d="M10.5,128v15.6h16.6h16.6V128v-15.6H27.1H10.5V128z"/><path fill="#ffffff" d="M52.2,128v15.6h37h37V128v-15.6h-37h-37V128z"/><path fill="#ffffff" d="M134.6,128v15.6h37h37V128v-15.6h-37h-37V128z"/><path fill="#ffffff" d="M216.1,128v15.6h14.7h14.7V128v-15.6h-14.7h-14.7V128z"/><path fill="#ffffff" d="M10.5,165.2v15.4h36h36l-0.2-15.2L82,150.2L46.2,150l-35.7-0.2V165.2L10.5,165.2z"/><path fill="#ffffff" d="M90.1,165.2v15.4h37h37v-15.4v-15.4h-37h-37V165.2z"/><path fill="#ffffff" d="M171.6,165.2v15.4h37h37v-15.4v-15.4h-37h-37V165.2z"/><path fill="#ffffff" d="M10.3,202.4L10,217.6h16.9h16.8v-15.2v-15.2H27.1H10.6L10.3,202.4z"/><path fill="#ffffff" d="M51.2,202.4v15.2h37.4h37.4v-15.2v-15.2H88.7H51.2V202.4z"/><path fill="#ffffff" d="M133.7,202.4v15.2h37.4h37.4v-15.2v-15.2h-37.4h-37.4V202.4z"/><path fill="#ffffff" d="M216.1,202.4v15.2h15H246l-0.3-15.2l-0.3-15.2h-14.6h-14.7L216.1,202.4L216.1,202.4z"/></g></g></g>
</svg>