<?xml version="1.0" encoding="utf-8"?>
<!-- Svg Vector Icons : http://www.onlinewebfonts.com/icon -->
<!DOCTYPE svg PUBLIC "-//W3C//DTD SVG 1.1//EN" "http://www.w3.org/Graphics/SVG/1.1/DTD/svg11.dtd">
<svg version="1.1" xmlns="http://www.w3.org/2000/svg" xmlns:xlink="http://www.w3.org/1999/xlink" x="0px" y="0px" viewBox="0 0 256 256" enable-background="new 0 0 256 256" xml:space="preserve">
<metadata> Svg Vector Icons : http://www.onlinewebfonts.com/icon </metadata>
<g><g><g><g><path fill="#ffffff" d="M201.8,225.1c-6.8-18.5-15.2-38.7-25.6-61.4c10-25.3-4.5-56-18-77.8c-7.6-12.3-20.3-14.5-30.9-10.9c-20.5-2-41.2-3.7-60.3-3.4c-7.8,0.1-14,6.5-13.9,14.2c0.1,7.7,6.7,13.9,14.3,13.8c12.8-0.2,26.7,0.6,40.9,1.8c0.2,1.7,0.5,3.5,1.1,5.3l-24,13.9c-8.6,5-11.7,13.8-6.9,19.7c4.7,5.9,15.6,6.7,24.1,1.7l19.6-11.4c0.3,0.6,0.6,1.2,0.7,1.6c1,2.5,1.7,5,2.4,7.5c0.3,0.9,0.7,4.1,0.9,5.5c0,0.3,0,0.7,0,1c0,0.2-0.1,0.3-0.1,0.5c-1.6,3.7-2.5,7.5-2.6,11.4c-15.3,18.9-29.6,41-40.2,62.8c-3.8,7.7-0.5,17,7.2,20.8c2.2,1.1,4.5,1.6,6.8,1.6c5.8,0,11.4-3.2,14.1-8.7c8.7-17.7,20-35.7,32.3-51.6c2.3,0.6,4.7,0.9,7.1,0.9c8.5,19,15.6,36.1,21.4,51.9c2.3,6.3,8.3,10.2,14.7,10.2c1.8,0,3.6-0.3,5.4-0.9C200.6,242.1,204.8,233.2,201.8,225.1z M128,143.6c0-0.1,0-0.1,0.1-0.2c0.1-0.1,0.1-0.2,0.2-0.3C128.2,143.2,128.1,143.4,128,143.6z"/><path fill="#ffffff" d="M86.4 38.6a28.9 28.6 0 1 0 57.8 0a28.9 28.6 0 1 0 -57.8 0z"/></g></g><g></g><g></g><g></g><g></g><g></g><g></g><g></g><g></g><g></g><g></g><g></g><g></g><g></g><g></g><g></g></g></g>
</svg>