<?xml version="1.0" encoding="utf-8"?>
<!-- Svg Vector Icons : http://www.onlinewebfonts.com/icon -->
<!DOCTYPE svg PUBLIC "-//W3C//DTD SVG 1.1//EN" "http://www.w3.org/Graphics/SVG/1.1/DTD/svg11.dtd">
<svg version="1.1" xmlns="http://www.w3.org/2000/svg" xmlns:xlink="http://www.w3.org/1999/xlink" x="0px" y="0px" viewBox="0 0 256 256" enable-background="new 0 0 256 256" xml:space="preserve">
<metadata> Svg Vector Icons : http://www.onlinewebfonts.com/icon </metadata>
<g><g><path fill="#FFFFFF" d="M145.3,105.5l2.6-28.2l13.7,19.3c0.9,1.3,1.5,1.4,2.5,1.5l26,1.1c8.3-0.6,7.1,14.8,1.5,16.7l-30.2,2c-4.9,0.8-7.7-1.1-10.3-5L145.3,105.5L145.3,105.5z M139.3,188.5l-6.3,37.9c-0.7,4.4-2.5,11-1.4,15.2c0.5,2.1,2.8,4.2,4.6,4.3h34.3c1.1,0,1.7-0.5,1.7-1.7v-3.6c0-2.1-1.2-3.4-3.3-4l-11.2-3.4c-1-0.6-1.5-1.5-1.4-2.9l11-46.6c0.7-4.5-0.7-9.4-3.3-12.6L139.9,139c-0.9-1.1-0.7-2.6-0.6-3.9l6.4-56.3c1-20.7-23.7-27.9-37.4-12.2L82.7,93c-1.9,1.9-5.1,5.6-6.2,8l-13,28c-1.8,3.8-4.4,11.2-3.3,15.5c0.4,1.7,1.5,3.1,3.6,4.1c4.3,1.9,8.5,3.3,10.9-1.2l17.1-34.8c0.7-1.4,1.7-2.7,3-3.8c8-6.7,16-13.5,24.1-20.2c1.3-1.1,3.1,1,1.7,2.1l-16.8,16.6l-1.5,26.6c-0.3,5,0.7,11.6,4.3,15.3c10.4,10.5,21.6,24.3,31.7,34.9C140.3,186,139.8,185.5,139.3,188.5L139.3,188.5L139.3,188.5z M104,152.9l20.1,20.1c-2.6,5.1-5.3,10.1-8,15.1c-7.5,13.8-17,31-21.8,45.7l11.7,2.9c2.1,0.6,3.3,1.9,3.3,4v3.6c0,1.2-0.6,1.6-1.7,1.7H73.6c-3.2-0.4-4.8-5-4.8-7.3c0.2-4.3,2.1-9.7,3.5-13.9c5.5-16.7,12.3-35.2,20.3-50C96.6,167.5,100.5,160.2,104,152.9L104,152.9L104,152.9z M150.2,45.1c-3,8.4-10.2,11.2-18.3,9.8c-5.9-1-12.1-5.7-14.7-10.9c-2.3-4.8-2.5-15.7-1.8-20.7c2.4-17.5,30.6-16.2,36.1-4.8c0.9,1.8,1.4,3.9,1.5,6.5C153.3,29.3,152.2,39.6,150.2,45.1L150.2,45.1z"/></g></g>
</svg>