<?xml version="1.0" encoding="utf-8"?>
<!-- Svg Vector Icons : http://www.onlinewebfonts.com/icon -->
<!DOCTYPE svg PUBLIC "-//W3C//DTD SVG 1.1//EN" "http://www.w3.org/Graphics/SVG/1.1/DTD/svg11.dtd">
<svg version="1.1" xmlns="http://www.w3.org/2000/svg" xmlns:xlink="http://www.w3.org/1999/xlink" x="0px" y="0px" viewBox="0 0 256 256" enable-background="new 0 0 256 256" xml:space="preserve">
<metadata> Svg Vector Icons : http://www.onlinewebfonts.com/icon </metadata>
<g><g><g><g><path fill="#ffffff" d="M167.1,109.7c0,0,9.2-5.3,15.7-9l23.1-14.2c-5.4-7.1-22.2-22.9-26.9-28.2c-6.5-7.3-20.7-7.4-28-0.8c-2.4,2.1-4,4.8-5,7.6c-6.1,7.7-17,5.4-26.5,3.9c-4.4-0.7-8.3,3.9-8.4,7.9c-0.1,4.9,3.5,7.7,7.9,8.4c9.9,1.6,20.6,2.2,29.3-1.5C148.3,83.7,150.4,109.7,167.1,109.7z"/><path fill="#ffffff" d="M141.9,54.8c7.8,2.4,16-2,18.4-9.8c1.5-4.9,0.4-9.9-2.6-13.6l2.7,0.4c1.6,0.2,3.1-0.9,3.4-2.5c0.2-1.6-0.9-3.1-2.5-3.4l-5.7-0.8l0.7-0.9c1-1.3,0.9-3.2-0.4-4.2c-1.3-1-3.1-0.9-4.2,0.4l-3.9,4.7c-0.2,0.2-0.4,0.4-0.6,0.7l-0.2,0.2c-6.6-0.5-13,3.7-15.1,10.4C129.8,44.1,134.2,52.4,141.9,54.8z"/><path fill="#ffffff" d="M10 59a12 12 0 1 0 24 0a12 12 0 1 0 -24 0z"/><path fill="#ffffff" d="M71.9,122.4c-1.6-1.3-3.4-2-5.3-1.9c-0.4-0.2-0.9-0.5-1.3-0.6c-5.5-2-11.3-2.7-17-2.1c-0.1-1-0.2-2-0.5-3c-1-3.8-2-7.6-3.1-11.4c6.9-2,13.1-5.9,18.2-11.3c6-6.5-4.5-15.3-10.5-8.9c-3.2,3.5-7.1,5.7-11.3,6.9C40.6,88,40,86,39.5,83.9c8.7-2.5,17.2-5.6,25.4-9.6c7.7-3.8,1-15.2-6.7-11.5C47.9,67.7,37,71,26,73.6c-0.8,0.1-1.6,0.3-2.3,0.6c-6.4,2.4-8.5,8.9-6.8,15.1c3,11.2,6,22.5,9.1,33.7c0.5,2,1.7,3.6,3.2,4.8c5.1,12.7,4.2,24.8-1.5,38.1c-3.5,8.1,9.1,13.7,12.6,5.5c5.7-13.3,7.6-26.5,4.6-39.6c5.7-1.4,11.3-1.2,17,0.9c0.8,0.3,1.5,0.4,2.2,0.4c3.2,2.8,6.1,5.9,8.3,9.4c2,3,5.9,4.3,9.1,2.4c3-1.8,4.4-6.1,2.4-9.1C80.5,130.7,76.6,126.2,71.9,122.4z"/><path fill="#ffffff" d="M41.5,33.9c0.1-0.4,0.2-0.7,0.2-1.2c0.2-0.1,0.4-0.1,0.7-0.2c1.4,1.8,3.3,3.1,5.6,3.7c2,0.6,4,0.6,6,0c-1.3,3.1-1,6.5,0.6,9.3c-3.3,1.9-5.5,5.4-5.6,9.2c-2.6-0.7-5.4-0.4-7.9,0.9l0.5,0.9c2.3-1.2,4.9-1.5,7.3-0.8c0.1,0,0.2,0.1,0.3,0.1l0.9,0.3l0-0.7c-0.1-3.9,2.1-7.5,5.5-9.2l0.5-0.2l-0.3-0.5c-1.9-3-2-6.7-0.3-9.9l0.7-1.2l-1.3,0.5c-2.1,0.9-4.3,1-6.5,0.4c-2.1-0.6-3.9-1.9-5.3-3.7l-0.2-0.3l-0.4,0.1c-0.4,0.2-0.8,0.3-1.2,0.4L40.8,32l0,0.3c-0.1,0.5-0.2,0.9-0.3,1.3c-1,3.4-3.7,6-7.1,6.9l0.2,1C37.4,40.6,40.4,37.7,41.5,33.9z"/><path fill="#ffffff" d="M245.7,197.5L245.7,197.5v-22.1h-21.3c4-2.2,6-7,4.5-11.4l-20-58.2c0.2-3.3,0.5-9.9-1.2-13l-21,13.9c-8.9,4.8-24.2,14.9-24.9,15.6c-3.4,3-4.2,8-1.9,11.9l20.7,35.6c1.3,2.1,3.2,3.6,5.4,4.3c2.5,0.7,5.2,0.5,7.6-0.9c4.6-2.6,6.1-8.5,3.4-13l-16.8-28.8c3.5-3,7.5-6.2,11.3-8.9c0.9,0,1.9-0.1,2.8-0.3l16.4,48c0.8,2.3,2.4,4.2,4.4,5.3H142v30.4h9.6v15.2h12v15.5H246v-39.1H245.7L245.7,197.5z"/></g></g><g></g><g></g><g></g><g></g><g></g><g></g><g></g><g></g><g></g><g></g><g></g><g></g><g></g><g></g><g></g></g></g>
</svg>