<?xml version="1.0" encoding="utf-8"?>
<!-- Svg Vector Icons : http://www.onlinewebfonts.com/icon -->
<!DOCTYPE svg PUBLIC "-//W3C//DTD SVG 1.1//EN" "http://www.w3.org/Graphics/SVG/1.1/DTD/svg11.dtd">
<svg version="1.1" xmlns="http://www.w3.org/2000/svg" xmlns:xlink="http://www.w3.org/1999/xlink" x="0px" y="0px" viewBox="0 0 256 256" enable-background="new 0 0 256 256" xml:space="preserve">
<metadata> Svg Vector Icons : http://www.onlinewebfonts.com/icon </metadata>
<g><g><path fill="#ffffff" d="M128,244.8c-65.2,0-118-52.3-118-116.8C10,63.5,62.8,11.2,128,11.2c65.2,0,118,52.3,118,116.8C246,192.5,193.2,244.8,128,244.8z M128,39.4c-49.4,0-89.5,39.7-89.5,88.6c0,48.9,40.1,88.6,89.5,88.6c49.4,0,89.5-39.7,89.5-88.6C217.5,79.1,177.4,39.4,128,39.4z"/><path fill="#ffffff" d="M114.2,170.7h28.6v28.7h-28.6V170.7z"/><path fill="#ffffff" d="M109.7,97.6H84.8c0,0,2.4-38.6,36.6-42.7c0,0,49.9-1.8,50.5,35.9c0,0,3.7,16.4-23.9,32.3c0,0-6.8,6.8-7.9,17.1c-0.5,4.6-1.7,13.3,0.2,16l-25.3-0.3c0,0-0.9-42.9,20.6-50.3c0,0,10.6-4.4,10.9-13.6c0,0-1-14.7-13.9-14C132.6,78,114.4,75.2,109.7,97.6z"/></g></g>
</svg>