<?xml version="1.0" encoding="utf-8"?>
<!-- Svg Vector Icons : http://www.onlinewebfonts.com/icon -->
<!DOCTYPE svg PUBLIC "-//W3C//DTD SVG 1.1//EN" "http://www.w3.org/Graphics/SVG/1.1/DTD/svg11.dtd">
<svg version="1.1" xmlns="http://www.w3.org/2000/svg" xmlns:xlink="http://www.w3.org/1999/xlink" x="0px" y="0px" viewBox="0 0 256 256" enable-background="new 0 0 256 256" xml:space="preserve">
<metadata> Svg Vector Icons : http://www.onlinewebfonts.com/icon </metadata>
<g><g><path fill="#ffffff" d="M44.7,98.2C56.9,63.9,89.5,39.4,128,39.4c16.8,0,32.4,4.7,45.8,12.9l-16.3,28.5l88.5,44.7C244.6,61.4,192.4,9.9,128,9.9c-51.4,0-95,32.8-111.2,78.7C20.9,110.1,40.5,105.4,44.7,98.2L44.7,98.2L44.7,98.2z M210.6,159.8c-12.8,33.2-44.9,56.8-82.6,56.8c-17.2,0-33.3-5-46.9-13.5l14.4-23L10,130.9c1.6,63.9,53.8,115.2,118,115.2c51.7,0,95.5-33.2,111.5-79.5C244.4,152.6,220.8,133.2,210.6,159.8L210.6,159.8L210.6,159.8z"/></g></g>
</svg>