<?xml version="1.0" encoding="utf-8"?>
<!-- Svg Vector Icons : http://www.onlinewebfonts.com/icon -->
<!DOCTYPE svg PUBLIC "-//W3C//DTD SVG 1.1//EN" "http://www.w3.org/Graphics/SVG/1.1/DTD/svg11.dtd">
<svg version="1.1" xmlns="http://www.w3.org/2000/svg" xmlns:xlink="http://www.w3.org/1999/xlink" x="0px" y="0px" viewBox="0 0 256 256" enable-background="new 0 0 256 256" xml:space="preserve">
<metadata> Svg Vector Icons : http://www.onlinewebfonts.com/icon </metadata>
<g><g><path fill="#FFFFFF" d="M36.9,127.8c5.8-0.2,11.6,0,17.5,0v0c5.2,0,10.5,0.3,15.7-0.1c2.6-0.2,7.1,2,7.2-3.4c0.1-4-1-8-5.5-8.5c-12.1-1.4-24.3-1.6-36.4,0.1c-2.9,0.4-6.3,2.8-5.2,6.7C30.8,125.6,32.9,127.9,36.9,127.8"/><path fill="#FFFFFF" d="M39.6,103.2c9.3,0,18.7-0.7,27.9,0.2c11.3,1.2,19.6-2.6,27-13.1c-19.2,0-37.1,0.1-55,0c-4.9,0-9.4,0.7-9.2,6.2C30.3,101.4,34.7,103.2,39.6,103.2"/><path fill="#FFFFFF" d="M97,154.5c2.6,0,6.6-0.4,3-4c-4.2-4.3-7.9-9.3-15.7-9.1c-14.8,0.6-29.6,0.3-44.4,0.1c-5.3-0.1-10.1,1.1-9.9,6.6c0.2,5.3,5.1,6.6,10.3,6.5c9-0.2,18,0,27,0v0C77.2,154.6,87.1,154.6,97,154.5"/><path fill="#FFFFFF" d="M154,186.1c-6.8,5-16.4,2.2-24.1,6.5c-2.4,1.3-4.4,3.1-5.7,5c-6.7,10.1-13,20.6-19.7,30.8c-3.9,6-2.4,11.3,2.6,14.9c5.3,3.9,11.8,3.9,16.1-1.9c12.1-16.1,23.7-32.4,35.5-48.8C161.9,188.1,159.1,186.7,154,186.1"/><path fill="#FFFFFF" d="M225.3,99.4c-4.4-9.8-12.7-5.2-19.7-5.6c-6.6-0.4-13.4,7-19,2.1c-4.8-4.2-7.6-11.3-9.8-17.6c-2.8-8.1-9.5-13.9-14.7-22.3c18.6,7.1,29.8,0.5,35.3-8.2c6.3-10.1,4.6-23.2-4-31c-8.6-7.8-21.5-9-31.1-2.8c-12.2,7.9-13.9,18.1-5.7,38.1c-13.2-4.1-24.2-10.3-35.9-14.9c-4.6-1.8-9.1-6.3-14.5-4.2C92,38.8,77.7,44.8,63.8,51.4c-8.6,4.1-10.4,9.9-6.8,16.5c2.9,5.3,10.4,7,17.7,3.9c6.3-2.7,12.6-5.4,18.6-8.6c10.1-5.4,19.2-5.5,29.1,1.3c6.4,4.4,5.5,7.1,0.7,11.6C112.5,86.1,101,95.5,92,107.3c-6.6,8.6-6.3,17.6,1.6,25c9.7,9.2,19.9,17.9,29.7,26.9c3.1,2.8,5.7,5.6-1.4,6.9c-9.6,1.8-19,4.3-28.6,6.3c-7,1.4-12.7,7.9-11.5,13.5c1.4,6.7,9.8,10.9,17,9.3c19-4.4,38-8.8,57-12.8c9.8-2,14.4-11.7,8.5-19.5c-5.5-7.2-11.4-14.1-16.6-21.5c-12.4-17.2-12.3-17.3,3.3-32.4c8.8-8.5,8.7-8.4,15.4,2.6c2.9,4.8,5.4,10.6,12.5,10.1c14.1-1.1,27.8-4.7,41.4-8.3C225.4,112.1,227.5,104.4,225.3,99.4"/></g></g>
</svg>