<?xml version="1.0" encoding="utf-8"?>
<!-- Svg Vector Icons : http://www.onlinewebfonts.com/icon -->
<!DOCTYPE svg PUBLIC "-//W3C//DTD SVG 1.1//EN" "http://www.w3.org/Graphics/SVG/1.1/DTD/svg11.dtd">
<svg version="1.1" xmlns="http://www.w3.org/2000/svg" xmlns:xlink="http://www.w3.org/1999/xlink" x="0px" y="0px" viewBox="0 0 256 256" enable-background="new 0 0 256 256" xml:space="preserve">
<metadata> Svg Vector Icons : http://www.onlinewebfonts.com/icon </metadata>
<g><g><g><path fill="#FFFFFF" d="M66.7,10.4c-4.4,1.5-7.8,4.5-9.3,8.4c-0.8,2.2-0.9,5.1-0.9,109.3v107.1l1,2.1c1.4,3.1,4,5.7,7,7.2c2.6,1.3,2.8,1.3,12.5,1.4c11.4,0.2,14.8-0.2,19.3-2.4c4.3-2.1,7.5-4.7,10.8-9.1c6.7-8.8,12-24.9,12.8-38.5c0.5-8.9,0.9-8.6-14.9-9c-12-0.2-12-0.2-14.6-1.5c-6.8-3.4-10-11-7.5-18.3c1.2-3.5,5-7.4,8.7-8.8c2.4-0.9,3.6-1,11.2-1c9.4,0,10.7-0.3,12-2.8c0.4-0.8,0.7-2.6,0.7-4.4v-3h5.9c5.1,0,6.1-0.1,7.9-1c6.4-3.1,9.7-10.7,8.4-19.6c-1.4-10.3-6-19.9-23.5-48.9c-10.4-17.3-11.8-20.3-17.4-38.1c-5.3-16.8-11.4-25.4-20.3-28.5C73.1,10,69,9.7,66.7,10.4z"/><path fill="#FFFFFF" d="M172.3,124c-1.5,0.7-2.9,2.8-2.9,4.4c0,1.4,0.8,2.7,3.2,5.3c7.8,8.4,13.2,19,15.8,30.8c0.8,3.8,1,6.2,1,12.6s-0.2,8.8-1,12.6c-2.5,11.6-7.7,22.1-15,29.9c-1.6,1.8-3.2,3.6-3.5,4.2c-1.8,3.3,1.5,7.6,5.3,6.8c1.9-0.3,5.6-4.1,9.7-9.6c19.4-26.4,19.2-62.2-0.4-88.2c-4-5.4-7.7-8.9-9.4-9.2C174.4,123.4,173.1,123.6,172.3,124z"/><path fill="#FFFFFF" d="M154.3,141.7c-1.8,1.1-2.7,3.5-2,5.3c0.3,0.7,1.5,2.4,2.7,3.9c6.6,7.8,9.8,16.2,9.8,26.2c0,10.2-3,18.1-9.9,26.2c-2.9,3.4-3.4,4.8-2.5,7c0.9,2.1,3.2,3.3,5.5,2.9c2-0.4,5.4-3.9,9-9.4c12.1-18.6,10.1-43.4-5-59.8C159,140.8,156.9,140.1,154.3,141.7z"/><path fill="#FFFFFF" d="M136.1,159.7c-1,1-1.3,1.8-1.3,3c0,1.8,0.9,3.8,2.1,4.8c0.4,0.4,1.3,1.7,2,3c1.1,2,1.2,2.9,1.2,6.5c0,4.6-0.6,6.1-3.7,10.2c-2.1,2.8-2.2,5.2-0.3,7.2c1.1,1.1,1.8,1.3,3.5,1.3c1.9,0,2.4-0.2,4.2-2.1c8.1-8.4,8.5-22.9,1-32.1c-2.1-2.5-3.2-3.1-5.4-3.2C137.9,158.4,137.2,158.7,136.1,159.7z"/></g></g></g>
</svg>