<?xml version="1.0" encoding="utf-8"?>
<!-- Svg Vector Icons : http://www.onlinewebfonts.com/icon -->
<!DOCTYPE svg PUBLIC "-//W3C//DTD SVG 1.1//EN" "http://www.w3.org/Graphics/SVG/1.1/DTD/svg11.dtd">
<svg version="1.1" xmlns="http://www.w3.org/2000/svg" xmlns:xlink="http://www.w3.org/1999/xlink" x="0px" y="0px" viewBox="0 0 256 256" enable-background="new 0 0 256 256" xml:space="preserve">
<metadata> Svg Vector Icons : http://www.onlinewebfonts.com/icon </metadata>
<g><g><path fill="#ffffff" d="M160.1,248.7c-35.5,0-70.3-4.1-97.1-11.7c-24.4-6.9-40-15.8-47.7-27.4c-4-6-5.1-35.4-5.2-38.8c-0.1-4.9,3.6-9,8.5-9.1c4.9-0.4,9,3.6,9.1,8.5c0.5,14.5,2,26.9,2.8,30.4c6.9,9.2,23.9,15.6,37.2,19.4c32.1,9.1,78.7,13,121.5,10.1c11.7-0.8,19.7-3.8,22.4-8.6c3.2-5.5-0.4-13.4-0.5-13.5c-1.1-2.2-1.2-4.8-0.3-7c0.9-2.3,2.7-4.1,4.9-5c3.6-1.5,8.1-3.9,9.1-7.6c1.1-4-1.8-9.1-2.5-10.1c-2.5-3.4-2.2-8.1,0.6-11.2c4-4.4,5.8-8.4,5.3-11.9c-0.7-5.4-6.6-9.4-6.6-9.5c-4-2.5-5.3-7.7-3-11.8c4.5-7.9,5.5-15,3-19.5c-1.7-2.9-4.6-4-6.5-4h-70.4c-2.9,0-5.6-1.4-7.2-3.7c-1.7-2.3-2.1-5.4-1.1-8.1c15.7-43.8,10.6-61.4,6.2-67.9c-3.4-5.2-8-5.7-8.1-5.7c-3.5-0.3-4.5-0.4-9.7,15.3c-3,9-6.8,20.3-13.9,33.2c-15.7,28.7-48.3,46.5-67.7,57.1c-5.7,3.1-11.7,6.4-13.3,7.9c-3.6,3.3-9.2,3.1-12.5-0.4s-3.1-9.2,0.4-12.5c3.3-3.1,9-6.2,16.9-10.5c18.9-10.3,47.4-25.9,60.6-50.1c6.3-11.6,9.8-22,12.6-30.4c4.8-14.3,9.7-29.1,27.8-27.3c0.9,0,13,0.9,21.5,13.5c9.9,14.8,9.8,39-0.3,71.9h58.2c8.8,0,17.2,4.9,21.8,12.7c3,5.1,6.6,15.5,0.4,30.5c3.6,3.8,7.5,9.4,8.5,16.9c0.9,7.2-1,14.2-5.8,21.1c2.1,4.8,3.9,11.8,1.8,19.3c-1.3,4.5-4.5,10.4-12,15.3c1.3,5.9,1.6,14-2.8,21.7c-5.9,10.4-18.3,16.2-36.6,17.5C180.3,248.4,170.2,248.7,160.1,248.7z"/></g></g>
</svg>