<?xml version="1.0" encoding="utf-8"?>
<!-- Svg Vector Icons : http://www.onlinewebfonts.com/icon -->
<!DOCTYPE svg PUBLIC "-//W3C//DTD SVG 1.1//EN" "http://www.w3.org/Graphics/SVG/1.1/DTD/svg11.dtd">
<svg version="1.1" xmlns="http://www.w3.org/2000/svg" xmlns:xlink="http://www.w3.org/1999/xlink" x="0px" y="0px" viewBox="0 0 256 256" enable-background="new 0 0 256 256" xml:space="preserve">
<metadata> Svg Vector Icons : http://www.onlinewebfonts.com/icon </metadata>
<g><g><g><path fill="#ffffff" d="M11.9,10.5c-0.6,0.3-1.2,1.1-1.6,1.8c-0.5,1.2,0,3.5,3.5,19.9L18,50.7l38.5,38.6L95,128l-5.2,5.2c-5.8,5.9-6.2,6.8-3.8,9.1c0.9,0.9,1.8,1.3,2.9,1.3c1.2,0,2.2-0.7,6.6-5.1l5.2-5.1l4,4l4,4l-5,5.2c-5.8,5.9-6.2,7-3.7,9.5c2.5,2.4,4.1,1.8,10.2-4.4l4.4-4.4l4,4l4.1,4l-5.1,5.2c-4.6,4.6-5.1,5.3-5.1,6.8c0,1.2,0.3,1.9,1.4,2.8c2.4,2.1,3.2,1.8,9-4l5.2-5.2l5.2,5.2c5.9,5.8,6.8,6.2,9.1,3.8c0.9-1,1.3-1.8,1.3-2.9c0-1.4-4.4-5.9-59.2-60.8L25.3,47.1l-2.1-9.6C22,32.2,21,27.6,21,27.3C21,27,50.4,56,86.2,91.9c47.2,47.2,65.5,65.2,66.4,65.4c2.7,0.6,5.3-2,4.7-4.7c-0.2-1-18.3-19.3-65.6-66.6L26.5,20.7l10.3,2.3l10.3,2.3l59.3,59.2c54.9,54.8,59.4,59.2,60.8,59.2c1.1,0,1.9-0.4,2.9-1.3c2.8-2.9,7,1.7-58.8-64.1L51.1,18.1L32.7,14C22.6,11.8,14.1,9.9,13.7,10C13.3,10,12.5,10.2,11.9,10.5z"/><path fill="#ffffff" d="M222.8,14.1l-17.9,4l-34.3,34.3c-18.9,18.9-34.4,34.8-34.6,35.3c-0.6,2.4,1.3,4.7,3.9,4.7c1.6,0,3.4-1.8,35.3-33.6l33.7-33.6l10.3-2.3l10.3-2.3l-39.9,39.9c-38.1,38.1-39.9,40-39.9,41.6c0,3,3,4.9,5.7,3.6c0.6-0.3,18.7-18.2,40.3-39.8C217.3,44.4,235,27,235,27.2c0,0.3-1,4.8-2.1,10.1l-2.1,9.7l-33.6,33.7c-31.9,31.9-33.6,33.8-33.6,35.3c0,2.6,2.6,4.7,4.9,3.9c0.5-0.1,16.3-15.8,35.2-34.7L238,50.7l4.1-18.5c3.5-16.3,4-18.7,3.5-19.9c-0.6-1.4-2.2-2.4-3.9-2.4C241.2,10,232.7,11.9,222.8,14.1z"/><path fill="#ffffff" d="M60.5,135c-3.2,3.6-6.1,9.3-6.8,13.4c-1,5.8,0.7,11.7,5.1,17.5c1.3,1.7,2.4,3.3,2.4,3.5c0,0.2-5.5,5.8-12.2,12.5l-12.2,12.2l-2.8-2.6c-1.5-1.4-3.3-2.8-4-3.1c-1.8-0.6-5.2-0.6-6.6,0.2c-1.8,1-12.4,11.8-13,13.3c-0.7,2-0.6,4.3,0.4,6.2c1.3,2.5,35.4,36.3,37.5,37.2c4.1,1.7,6.5,0.5,13.4-6.5c3-3,5.6-6,5.9-6.8c1.3-3.3,0.3-6.5-3.2-10.2l-2.4-2.5L74.1,207c6.7-6.7,12.3-12.2,12.5-12.2c0.2,0,1.5,0.9,2.9,2.1c10.1,8.3,21.9,7.6,31.8-1.8c2.3-2.2,2.5-2.6,2.5-4.2c0-1.8-0.4-2.3-28.5-30.3l-28.5-28.5H65C63.2,132.1,62.8,132.4,60.5,135z M90,166.2c23.4,23.4,24.4,24.5,23.5,25.2c-4.6,3.6-10.3,4.2-15.1,1.8c-1.5-0.7-4.3-2.8-6.4-4.7c-5.8-5.4-4.3-6.2-21.4,10.9l-14.3,14.3l-3.5-3.5c-1.8-1.9-4-3.6-4.6-3.7c-2.6-0.6-4.8,1.3-4.7,4.1c0,1.2,1.4,2.8,8.5,9.8l8.4,8.4l-4.6,4.6l-4.6,4.6l-16.7-16.7l-16.7-16.7l4.6-4.6l4.6-4.6l4.1,4c3.5,3.4,4.3,4,5.7,4c1.4,0,2.8-1.2,16-14.4l14.4-14.4l4.1,4c4.1,4.1,4.9,4.5,7.1,3.9c1.8-0.5,2.9-2.9,2.1-4.8c-0.3-0.7-4.1-4.9-8.4-9.4c-8.7-8.8-10.2-11.1-10.7-15.7c-0.1-1.4,0-3.3,0.3-4.3c0.6-2,3.1-6.7,3.6-6.7C65.4,141.8,76.5,152.8,90,166.2z"/><path fill="#ffffff" d="M160.6,160.6c-28.1,28.1-28.5,28.5-28.5,30.3c0,1.7,0.3,2.1,2.9,4.5c3.5,3.3,9.1,6.1,13.4,6.9c5.9,1,12.4-1,18.2-5.7l2.7-2.2l12.4,12.4l12.4,12.4l-2.6,2.8c-1.4,1.5-2.8,3.3-3.1,4c-0.6,1.8-0.6,5.2,0.2,6.6c0.4,0.7,3.1,3.7,6.1,6.6c6.8,6.8,8.9,7.8,13,6.1c2.4-1,36.3-34.8,37.5-37.3c1.1-2.4,1.1-4.1,0-6.5c-1.1-2.2-11.3-12.4-13.1-13.1c-3.4-1.3-6.5-0.3-10.3,3.2l-2.5,2.4L207,181.9c-6.7-6.7-12.2-12.4-12.2-12.5c0-0.2,0.8-1.3,1.8-2.5c8.5-10.3,8-21.7-1.5-32.3c-2-2.2-2.4-2.4-4.1-2.4h-1.9L160.6,160.6z M193,145.1c1.5,2.6,1.7,3.3,1.7,6.4c0,4.5-1.4,7.4-6,12.4c-5.4,5.9-6.2,4.4,10.8,21.5l14.3,14.3l-3.5,3.5c-3.7,3.7-4.4,5.2-3.3,7.3c0.8,1.5,1.6,1.9,3.6,1.9c1.3,0,2.5-1.1,9.9-8.4l8.4-8.4l4.6,4.6l4.6,4.6l-16.7,16.7l-16.7,16.7l-4.6-4.6l-4.6-4.6l4-4.1c3.4-3.5,4-4.3,4-5.7c0-1.4-1.2-2.8-14.4-16l-14.4-14.4l4-4.1c2.2-2.2,4.1-4.4,4.1-4.9c0.4-2.8-2-5.3-4.6-4.6c-0.7,0.2-4.8,3.8-9.5,8.4c-9.9,9.6-11.8,10.9-17.1,10.9c-3.2,0-6.7-1.2-9.2-3.1c-0.9-0.7,0-1.7,23.5-25.2c13.4-13.4,24.6-24.4,24.8-24.3C191.2,142,192.1,143.4,193,145.1z"/></g></g></g>
</svg>