<?xml version="1.0" encoding="utf-8"?>
<!-- Svg Vector Icons : http://www.onlinewebfonts.com/icon -->
<!DOCTYPE svg PUBLIC "-//W3C//DTD SVG 1.1//EN" "http://www.w3.org/Graphics/SVG/1.1/DTD/svg11.dtd">
<svg version="1.1" xmlns="http://www.w3.org/2000/svg" xmlns:xlink="http://www.w3.org/1999/xlink" x="0px" y="0px" viewBox="0 0 256 256" enable-background="new 0 0 256 256" xml:space="preserve">
<metadata> Svg Vector Icons : http://www.onlinewebfonts.com/icon </metadata>
<g><g><g><path fill="#ffffff" d="M98.6,11.6C55.2,22.8,22.2,56.1,11.2,99.8c-0.7,2.8-1.2,5.3-1.2,5.7c0,1,23.4,0.9,23.7-0.1C38.8,87.8,44,77.7,53.8,65.8c8.3-10,21-19.8,32.8-25.4c5.6-2.6,16.9-6.5,18.8-6.5c0.8,0,0.9-1.8,0.9-12c0-6.6-0.2-12-0.4-12C105.6,9.9,102.4,10.7,98.6,11.6z"/><path fill="#ffffff" d="M149.7,21.6l0.2,11.8l7.1,2.3c30.6,9.8,53.6,32.8,63.4,63.4l2.3,7.1h11.7H246l-0.4-2.7c-0.7-4.4-4.6-16.4-7.2-22.7c-12.5-29.6-37.8-53.8-68-65.1c-5.2-2-12.8-4.2-19.1-5.6l-1.7-0.4L149.7,21.6z"/><path fill="#ffffff" d="M117.8,57.4c-5.9,0.9-14.4,3.5-20.1,6.2c-5.2,2.5-14.2,7.9-14.2,8.6c0,0.5,14.9,15.4,15.5,15.4c0.2,0,2.3-1.1,4.6-2.5c11.6-6.6,26.1-8.2,38.9-4.3c4.4,1.4,9.3,3.6,12.1,5.6c0.9,0.7,2,1.2,2.5,1.2c0.4,0,4.3-3.4,8.4-7.6l7.6-7.7l-4.8-3.1C152.8,59.2,134.9,55,117.8,57.4z"/><path fill="#ffffff" d="M69,87.9c-9.1,14-12.6,26.8-11.9,43.5c0.4,10.2,2.2,17.8,6.3,26.5c2.7,5.6,8.3,14.9,9,14.9c0.2,0,3.8-3.5,8-7.7l7.7-7.7l-1.1-1.7c-2.3-3.5-5.9-11.7-7-15.9c-1.5-5.9-1.5-16.9-0.1-23.3c0.7-2.8,2.5-7.6,4.5-11.4l3.3-6.6l-7.5-7.6c-4.2-4.2-7.7-7.6-7.9-7.6C72.2,83.3,70.7,85.4,69,87.9z"/><path fill="#ffffff" d="M175.6,90.9l-7.6,7.6l3.1,5.8c4.6,8.8,5.9,14,5.9,23.8s-1.3,15.1-5.8,23.5l-3,5.6l7.8,7.8l7.8,7.8l3.6-5.7c7.5-11.6,10.8-22,11.3-35.8c0.5-13.5-1.2-22.6-6.4-33.8c-2-4.2-8.2-14.3-8.9-14.3C183.3,83.3,179.8,86.7,175.6,90.9z"/><path fill="#ffffff" d="M10,150.7c0,1.7,3.4,13.8,5.4,19.1c14.4,38.5,46.2,66.1,87.1,75.6l3.8,0.9v-11.9v-11.9l-3.2-0.7c-8.2-2-21.1-7.8-29.3-13.4c-17.8-12-31.5-30.3-37.9-50.5c-1-3.4-2-6.5-2.2-7C33.5,149.7,10,149.6,10,150.7z"/><path fill="#ffffff" d="M222.2,150.7c-5.2,18-11.1,29.2-21.6,41.4c-4.6,5.3-13.4,13-19.6,16.9c-8.1,5.2-20.4,10.7-28.2,12.6l-3.3,0.7V234v11.7h1.4c0.8,0,4.9-0.9,9.1-2.1c27.3-7.5,51.4-24.9,67.4-48.5c7.7-11.4,14.4-26.7,17.4-39.7c0.6-2.3,1-4.4,1-4.8C245.9,149.6,222.4,149.8,222.2,150.7z"/><path fill="#ffffff" d="M91,175.5c-4.1,4.1-7.5,7.7-7.5,8c0,0.2,2,1.8,4.5,3.5c12.7,8.6,24.9,12.2,40.9,12.1c15.1-0.1,28.2-4.3,40.3-12.8l3.8-2.6l-7.8-7.8l-7.8-7.8l-3.6,2.2c-9.1,5.4-16.9,7.3-27.8,6.9c-6.4-0.2-8.4-0.6-13.3-2.3c-3.2-1-7.5-3-9.6-4.2c-2.1-1.2-4-2.3-4.1-2.4C98.7,168,95.2,171.3,91,175.5z"/></g></g></g>
</svg>